<?xml version="1.0" encoding="utf-8"?>
<svg xmlns="http://www.w3.org/2000/svg" viewBox="0 0 500 500" xmlns:bx="https://boxy-svg.com">
  <g style="stroke: none; stroke-width: 0; stroke-dasharray: none; stroke-linecap: butt; stroke-linejoin: miter; stroke-miterlimit: 10; fill: none; fill-rule: nonzero; opacity: 1;" transform="matrix(5.438079, 0, 0, 6.325058, 302.195282, 120.430611)">
    <path d="M 35.639 -15.007 C 35.658 -15.15 35.659 -15.292 35.637 -15.432 C 35.634 -15.453 35.636 -15.473 35.632 -15.494 C 35.599 -15.657 35.534 -15.811 35.449 -15.956 C 35.44 -15.972 35.439 -15.989 35.43 -16.005 C 35.415 -16.029 35.391 -16.041 35.375 -16.064 C 35.341 -16.112 35.315 -16.166 35.274 -16.21 C 35.223 -16.266 35.161 -16.307 35.104 -16.354 C 35.073 -16.379 35.046 -16.408 35.014 -16.43 C 34.88 -16.523 34.734 -16.594 34.578 -16.639 C 34.55 -16.647 34.522 -16.648 34.494 -16.654 C 34.362 -16.684 34.227 -16.695 34.09 -16.688 C 34.044 -16.686 34.001 -16.682 33.955 -16.676 C 33.916 -16.67 33.876 -16.674 33.837 -16.666 L -53.163 2.79 C -53.774 2.927 -54.236 3.429 -54.322 4.049 C -54.407 4.669 -54.098 5.278 -53.547 5.574 L -30.024 18.235 L -22.697 41.595 C -22.689 41.62 -22.672 41.638 -22.663 41.662 C -22.642 41.718 -22.611 41.768 -22.583 41.822 C -22.524 41.936 -22.456 42.04 -22.372 42.134 C -22.35 42.159 -22.342 42.191 -22.318 42.214 C -22.296 42.235 -22.268 42.242 -22.245 42.262 C -22.146 42.348 -22.038 42.417 -21.92 42.475 C -21.873 42.498 -21.832 42.528 -21.784 42.545 C -21.62 42.606 -21.448 42.645 -21.267 42.645 C -21.256 42.645 -21.245 42.645 -21.234 42.645 C -21.055 42.641 -20.885 42.601 -20.725 42.538 C -20.684 42.522 -20.65 42.494 -20.611 42.475 C -20.484 42.412 -20.367 42.336 -20.262 42.24 C -20.242 42.222 -20.216 42.216 -20.197 42.196 L -8.188 29.987 L 14.992 42.464 C 15.213 42.583 15.458 42.644 15.703 42.644 C 15.891 42.644 16.081 42.609 16.26 42.537 C 16.672 42.373 16.99 42.033 17.129 41.611 L 35.588 -14.734 C 35.602 -14.778 35.603 -14.824 35.613 -14.869 C 35.624 -14.915 35.633 -14.96 35.639 -15.007 Z M 23.093 -11.189 L -28.762 15.51 L -48.584 4.84 L 23.093 -11.189 Z M 19.978 -6.21 L -17.529 22.561 C -17.532 22.563 -17.534 22.567 -17.536 22.569 C -17.648 22.656 -17.745 22.763 -17.83 22.883 C -17.848 22.908 -17.865 22.933 -17.881 22.959 C -17.898 22.987 -17.92 23.011 -17.936 23.04 C -17.99 23.14 -18.029 23.244 -18.058 23.349 C -18.059 23.354 -18.063 23.358 -18.064 23.363 L -21.382 35.77 L -26.968 17.961 L 19.978 -6.21 Z M -18.35 36.042 L -15.657 25.97 L -10.94 28.509 L -18.35 36.042 Z M 14.835 38.977 L -13.863 23.53 L 31.227 -11.058 L 14.835 38.977 Z" style="stroke: none; stroke-width: 1; stroke-dasharray: none; stroke-linecap: butt; stroke-linejoin: miter; stroke-miterlimit: 10; fill-rule: nonzero; opacity: 1; fill: rgb(0, 0, 0);" stroke-linecap="round"/>
  </g>
  <path d="M 635.69 172.738 L 849.557 534.847 L 421.822 534.847 L 635.69 172.738 Z" bx:shape="triangle 421.822 172.738 427.735 362.109 0.5 0 1@c067a9ee" style="stroke: rgb(0, 0, 0); transform-box: fill-box; transform-origin: 50% 50%;" transform="matrix(0.827767, 0.561072, -0.76889, 0.686905, -288.351099, -211.835589)"/>
  <path d="M 690.334 193.748 L 761.182 334.559 L 619.485 334.559 L 690.334 193.748 Z" bx:shape="triangle 619.485 193.748 141.697 140.811 0.5 0 1@0bab39e7" style="stroke: rgb(0, 0, 0); transform-box: fill-box; transform-origin: 50% 50%;" transform="matrix(-0.974443, -0.224637, 0.224637, -0.974443, -488.477354, 47.454975)"/>
</svg>